<?xml version="1.0" encoding="utf-8"?>
<!-- Generator: Adobe Illustrator 19.0.0, SVG Export Plug-In . SVG Version: 6.00 Build 0)  -->
<svg version="1.1" id="Layer_1" xmlns="http://www.w3.org/2000/svg" xmlns:xlink="http://www.w3.org/1999/xlink" x="0px" y="0px"
	 viewBox="-442.5 245 268 72" style="enable-background:new -442.5 245 268 72;" xml:space="preserve">
<style type="text/css">
	.st0{fill:#B52E31;}
	.st1{fill:#E23237;}
	.st2{fill:#FFFFFF;}
</style>
<g>
	<path class="st0" d="M-361.7,297.9v-31.8h4.1l19.4,25.6v-25.6h3.9v31.8h-4.1l-19.5-25.9v25.9H-361.7L-361.7,297.9z M-302.6,296.6
		c-2.7,1-5.5,1.5-8.3,1.5c-11.5,0-17.3-5.5-17.3-16.6c0-10.5,5.6-15.7,16.7-15.7c3.2,0,6.2,0.5,8.9,1.3v3.5
		c-2.7-1.1-5.6-1.6-8.4-1.6c-8.7,0-13,4.1-13,12.3c0,8.8,4.3,13.2,12.8,13.2c1.4,0,2.9-0.2,4.5-0.6v-10.7h4.1L-302.6,296.6
		L-302.6,296.6z M-296.1,285.6v-19.5h4.1v19.5c0,6.1,3.1,9.2,9.2,9.2c6.1,0,9.2-3.1,9.2-9.2v-19.5h4.1v19.5
		c0,8.3-4.4,12.5-13.2,12.5S-296,294-296.1,285.6L-296.1,285.6z M-258.2,266.1v28.5h16.7v3.3h-20.8v-31.8H-258.2L-258.2,266.1z
		 M-235.6,297.9h-4.3l15.8-36l15.8,36h-4.5l-4.1-10h-10.5l1.1-3.3h8l-6-14.4L-235.6,297.9L-235.6,297.9z M-203.9,297.9v-31.8h13.6
		c6.1,0,9.1,2.5,9.1,7.6c0,4.1-3,7.2-8.9,9.2l10.9,15h-5.4l-10.1-14.3V281c6.1-1,9.2-3.3,9.2-7c0-2.9-1.6-4.4-5-4.4h-9.1v28.3
		L-203.9,297.9L-203.9,297.9z"/>
	<path class="st1" d="M-437.8,257.6l32.6-11.6l33.4,11.4l-5.4,43.1l-28,15.5l-27.6-15.3L-437.8,257.6z"/>
	<path class="st0" d="M-371.8,257.4l-33.4-11.4v70l28-15.5L-371.8,257.4L-371.8,257.4z"/>
	<path class="st2" d="M-405.2,254.2l-20.3,45.1l7.6-0.2l4.1-10.2h18.1l4.5,10.3l7.2,0.2L-405.2,254.2L-405.2,254.2z M-405.1,268.7
		l6.9,14.3h-12.9L-405.1,268.7L-405.1,268.7z"/>
</g>
</svg>
