<?xml version="1.0" encoding="utf-8"?>
<!-- Generator: Adobe Illustrator 19.0.0, SVG Export Plug-In . SVG Version: 6.00 Build 0)  -->
<svg version="1.1" id="svg2816" xmlns:svg="http://www.w3.org/2000/svg"
	 xmlns="http://www.w3.org/2000/svg" xmlns:xlink="http://www.w3.org/1999/xlink" x="0px" y="0px" viewBox="-243 218 268 70"
	 style="enable-background:new -243 218 268 70;" xml:space="preserve">
<style type="text/css">
	.st0{fill:url(#path12339_1_);}
	.st1{fill:url(#path12367_1_);}
	.st2{fill:#14559A;}
	.st3{fill:url(#path12459_1_);}
	.st4{fill:#3092C4;}
	.st5{fill:#1969BC;}
	.st6{fill:url(#path12553_1_);}
	.st7{fill:url(#path12581_1_);}
	.st8{fill:url(#path12651_1_);}
	.st9{fill:#2B74B1;}
	.st10{fill:#125A9E;}
	.st11{fill:url(#path12741_1_);}
	.st12{fill:url(#path12803_1_);}
	.st13{fill:#0D82CA;}
	.st14{fill:url(#path12831_1_);}
	.st15{fill:#127BCA;}
	.st16{fill:url(#path12923_1_);}
	.st17{fill:url(#path12949_1_);}
	.st18{fill:#05A1E6;}
	.st19{fill:url(#path12981_1_);}
	.st20{fill:url(#path13003_1_);}
	.st21{fill:url(#path13093_1_);}
	.st22{fill:#079AE1;}
	.st23{fill:#1E5CB3;}
	.st24{fill:#1D60B5;}
	.st25{fill:#175FAB;}
	.st26{fill:url(#path13139_1_);}
	.st27{fill:#7DCBEC;}
	.st28{fill:#5EC5ED;}
	.st29{fill:url(#path13245_1_);}
	.st30{fill:url(#path13255_1_);}
	.st31{fill:url(#path13333_1_);}
</style>
<g id="layer1" transform="translate(-937.60684,-1834.4815)">
	<g>
		<path id="path12303" d="M889.8,2117.9h-5.7l-20.7-31.9c-0.5-0.8-0.9-1.6-1.3-2.5H862c0.1,0.9,0.2,2.7,0.2,5.5v28.9h-4.7v-40h6.1
			l20,31.4c0.8,1.2,1.3,2.1,1.6,2.7h0.1c-0.2-1.2-0.3-3.1-0.3-5.9v-28.2h4.7L889.8,2117.9L889.8,2117.9z"/>
		<g>
			<path id="path12261" d="M949.9,2061.7c0-0.2-0.1-0.4-0.2-0.5c-0.1-0.1-0.4-0.2-0.7-0.2h-0.5v1.3h0.6
				C949.6,2062.4,949.9,2062.1,949.9,2061.7 M950.6,2064.3H950l-0.4-0.9c-0.2-0.4-0.4-0.7-0.7-0.7h-0.3v1.6h-0.5v-3.7h1
				c0.5,0,0.8,0.1,1,0.3c0.2,0.2,0.3,0.4,0.3,0.7c0,0.3-0.1,0.5-0.2,0.6c-0.2,0.2-0.4,0.3-0.7,0.4v0c0.2,0,0.4,0.3,0.6,0.7
				L950.6,2064.3L950.6,2064.3z M951.8,2062.5c0-0.7-0.2-1.3-0.7-1.8c-0.5-0.5-1.1-0.7-1.8-0.7c-0.7,0-1.4,0.2-1.8,0.7
				c-0.5,0.5-0.7,1.1-0.7,1.8c0,0.7,0.3,1.4,0.8,1.8c0.5,0.5,1.1,0.7,1.8,0.7c0.7,0,1.3-0.2,1.8-0.7
				C951.5,2063.9,951.8,2063.3,951.8,2062.5 M952.1,2062.5c0,0.8-0.3,1.5-0.8,2.1c-0.6,0.6-1.3,0.8-2.1,0.8c-0.8,0-1.5-0.3-2.1-0.8
				c-0.5-0.5-0.8-1.2-0.8-2.1c0-0.8,0.3-1.5,0.8-2c0.6-0.6,1.3-0.8,2.1-0.8c0.8,0,1.5,0.3,2,0.8
				C951.8,2061,952.1,2061.7,952.1,2062.5"/>
			<path id="path12265" d="M873.1,2072.8h-1.8v-10.2c0-0.8,0.1-1.8,0.1-3h0c-0.2,0.7-0.3,1.2-0.5,1.5l-5.2,11.7h-0.9l-5.2-11.6
				c-0.1-0.3-0.3-0.8-0.5-1.6h0c0.1,0.6,0.1,1.6,0.1,3v10.2h-1.7v-15.3h2.4l4.7,10.6c0.4,0.8,0.6,1.4,0.7,1.8h0.1
				c0.3-0.8,0.5-1.5,0.7-1.9l4.8-10.6h2.2L873.1,2072.8L873.1,2072.8z"/>
			<path id="path12267" d="M878.6,2072.8h-1.7v-10.9h1.7V2072.8z M878.9,2058c0,0.3-0.1,0.6-0.3,0.8c-0.2,0.2-0.5,0.3-0.8,0.3
				c-0.3,0-0.6-0.1-0.8-0.3c-0.2-0.2-0.3-0.5-0.3-0.8c0-0.3,0.1-0.6,0.3-0.8c0.2-0.2,0.5-0.3,0.8-0.3c0.3,0,0.6,0.1,0.8,0.3
				C878.8,2057.4,878.9,2057.7,878.9,2058"/>
			<path id="path12271" d="M889.5,2072.3c-0.8,0.5-1.8,0.8-3,0.8c-1.6,0-2.8-0.5-3.8-1.6c-0.9-1-1.4-2.3-1.4-3.9
				c0-1.8,0.5-3.2,1.5-4.3c1-1.1,2.4-1.6,4.1-1.6c0.9,0,1.8,0.2,2.5,0.6v1.8c-0.8-0.6-1.7-0.9-2.6-0.9c-1.1,0-2,0.4-2.7,1.2
				c-0.7,0.8-1.1,1.8-1.1,3.2c0,1.3,0.3,2.3,1,3c0.7,0.7,1.6,1.1,2.7,1.1c1,0,1.8-0.3,2.7-0.9L889.5,2072.3L889.5,2072.3z"/>
			<path id="path12275" d="M897.8,2063.7c-0.3-0.2-0.7-0.4-1.3-0.4c-0.7,0-1.3,0.3-1.8,1c-0.5,0.7-0.8,1.7-0.8,3v5.6h-1.7v-10.9h1.7
				v2.2h0c0.3-0.8,0.7-1.4,1.2-1.8c0.5-0.4,1.1-0.6,1.7-0.6c0.5,0,0.8,0.1,1,0.1L897.8,2063.7L897.8,2063.7z"/>
			<path id="path12279" d="M907.6,2067.4c0-1.4-0.3-2.5-0.9-3.2c-0.6-0.7-1.5-1.1-2.6-1.1c-1.1,0-2,0.4-2.6,1.1
				c-0.7,0.8-1,1.8-1,3.2c0,1.3,0.3,2.3,1,3.1c0.7,0.7,1.5,1.1,2.6,1.1c1.1,0,2-0.4,2.6-1.1C907.3,2069.8,907.6,2068.7,907.6,2067.4
				 M909.3,2067.3c0,1.7-0.5,3.1-1.5,4.2c-1,1-2.3,1.6-4,1.6c-1.6,0-2.9-0.5-3.9-1.6c-0.9-1-1.4-2.3-1.4-4c0-1.9,0.5-3.4,1.6-4.4
				c1-1,2.3-1.4,4-1.4c1.6,0,2.9,0.5,3.8,1.5C908.9,2064.2,909.3,2065.6,909.3,2067.3"/>
			<path id="path12283" d="M918,2069.9c0,0.9-0.3,1.6-1,2.2c-0.7,0.6-1.7,1-3,1c-1,0-1.9-0.2-2.7-0.7v-1.9c0.9,0.7,1.8,1,2.8,1
				c1.4,0,2.1-0.5,2.1-1.5c0-0.4-0.2-0.8-0.5-1.1c-0.3-0.3-0.9-0.6-1.8-1c-0.9-0.4-1.6-0.8-1.9-1.2c-0.5-0.5-0.7-1.2-0.7-2
				c0-0.9,0.4-1.7,1.1-2.3c0.7-0.6,1.6-0.9,2.8-0.9c0.9,0,1.6,0.2,2.3,0.5v1.8c-0.7-0.5-1.5-0.8-2.5-0.8c-0.6,0-1,0.1-1.4,0.4
				c-0.3,0.3-0.5,0.7-0.5,1.1c0,0.5,0.1,0.9,0.4,1.1c0.3,0.2,0.8,0.6,1.6,0.9c0.9,0.4,1.6,0.8,2,1.2
				C917.7,2068.4,918,2069.1,918,2069.9"/>
			<path id="path12287" d="M928.7,2067.4c0-1.4-0.3-2.5-0.9-3.2c-0.6-0.7-1.5-1.1-2.6-1.1c-1.1,0-2,0.4-2.6,1.1
				c-0.7,0.8-1,1.8-1,3.2c0,1.3,0.3,2.3,1,3.1c0.7,0.7,1.5,1.1,2.7,1.1c1.1,0,2-0.4,2.6-1.1C928.4,2069.8,928.7,2068.7,928.7,2067.4
				 M930.5,2067.3c0,1.7-0.5,3.1-1.5,4.2c-1,1-2.3,1.6-4,1.6c-1.6,0-2.9-0.5-3.9-1.6c-0.9-1-1.4-2.3-1.4-4c0-1.9,0.5-3.4,1.6-4.4
				c1-1,2.3-1.4,4-1.4c1.6,0,2.9,0.5,3.8,1.5C930,2064.2,930.5,2065.6,930.5,2067.3"/>
			<path id="path12291" d="M938.1,2058.2c-0.3-0.2-0.7-0.3-1.2-0.3c-1.2,0-1.8,0.8-1.8,2.3v1.7h2.6v1.5h-2.6v9.4h-1.7v-9.4h-1.9
				v-1.5h1.9v-1.8c0-1.2,0.4-2.1,1.1-2.8c0.6-0.6,1.4-0.9,2.4-0.9c0.5,0,1,0.1,1.3,0.2V2058.2z"/>
			<path id="path12295" d="M945,2072.7c-0.4,0.2-1,0.4-1.6,0.4c-1.9,0-2.9-1.1-2.9-3.2v-6.4h-1.9v-1.5h1.9v-2.7
				c0.6-0.2,1.1-0.4,1.7-0.6v3.2h2.7v1.5h-2.7v6.2c0,0.7,0.1,1.3,0.4,1.6c0.3,0.3,0.7,0.5,1.2,0.5c0.4,0,0.8-0.1,1.1-0.4L945,2072.7
				L945,2072.7z"/>
			<path id="path12299" d="M850.7,2115.4c0,0.9-0.3,1.6-0.9,2.2c-0.6,0.6-1.4,0.9-2.2,0.9c-0.9,0-1.6-0.3-2.2-0.9
				c-0.6-0.6-0.9-1.4-0.9-2.2c0-0.9,0.3-1.6,0.9-2.2c0.6-0.6,1.3-0.9,2.2-0.9c0.9,0,1.6,0.3,2.2,0.9
				C850.4,2113.8,850.7,2114.5,850.7,2115.4"/>
			<path id="path12307" d="M919.9,2117.9h-21.2v-40h20.3v4.2h-15.6v13.3h14.5v4.2h-14.5v14h16.5V2117.9z"/>
			<path id="path12311" d="M952,2082.1h-11.5v35.8h-4.7v-35.8h-11.6v-4.2H952V2082.1L952,2082.1z"/>
		</g>
	</g>
	<g>
		<path id="path12245" d="M822.5,2111.8h-1.3v4.2h-0.5v-4.2h-1.3v-0.5h3.2V2111.8z"/>
		<path id="path12257" d="M828,2116h-0.5v-3.1c0-0.2,0-0.5,0-0.9l0,0c-0.1,0.2-0.1,0.4-0.1,0.5l-1.6,3.6h-0.3l-1.6-3.6
			c0-0.1-0.1-0.3-0.1-0.5h0c0,0.2,0,0.5,0,0.9v3.1h-0.5v-4.7h0.7l1.4,3.3c0.1,0.2,0.2,0.4,0.2,0.6h0c0.1-0.3,0.2-0.4,0.2-0.6
			l1.5-3.2h0.7L828,2116L828,2116z"/>
		
			<linearGradient id="path12339_1_" gradientUnits="userSpaceOnUse" x1="295.0763" y1="2398.7017" x2="295.5561" y2="2398.7017" gradientTransform="matrix(0 149.7346 149.7346 0 -358405.3438 -42124.7539)">
			<stop  offset="0" style="stop-color:#0994DC"/>
			<stop  offset="0.35" style="stop-color:#66CEF5"/>
			<stop  offset="0.35" style="stop-color:#66CEF5"/>
			<stop  offset="0.8462" style="stop-color:#127BCA"/>
			<stop  offset="0.8462" style="stop-color:#127BCA"/>
			<stop  offset="1" style="stop-color:#127BCA"/>
		</linearGradient>
		<path id="path12339" class="st0" d="M749.7,2069.7c5.4,16.6,7.5,46.2,23.4,46.2l0,0c1.2,0,2.4-0.1,3.7-0.4l0,0
			c-14.4-3.4-16.1-32.7-24.9-47.8l0,0C751.1,2068.4,750.4,2069.1,749.7,2069.7"/>
		
			<linearGradient id="path12367_1_" gradientUnits="userSpaceOnUse" x1="295.0526" y1="2398.6272" x2="295.5324" y2="2398.6272" gradientTransform="matrix(0 153.5506 153.5506 0 -367544.5938 -43248.9453)">
			<stop  offset="0" style="stop-color:#0E76BC"/>
			<stop  offset="0.36" style="stop-color:#36AEE8"/>
			<stop  offset="0.36" style="stop-color:#36AEE8"/>
			<stop  offset="0.8462" style="stop-color:#00ADEF"/>
			<stop  offset="0.8462" style="stop-color:#00ADEF"/>
			<stop  offset="1" style="stop-color:#00ADEF"/>
		</linearGradient>
		<path id="path12367" class="st1" d="M751.8,2067.8c8.8,15.2,10.5,44.5,24.9,47.8l0,0c1.1-0.2,2.3-0.5,3.4-0.9l0,0
			c-13-6.3-16.5-34.8-26.5-48.5l0,0C753,2066.7,752.4,2067.2,751.8,2067.8"/>
		<path id="path12379" class="st2" d="M764.5,2058.8c-1.2,0-2.4,0.1-3.7,0.4c-3.2,0.6-6.5,2-9.8,4.1c0.9,0.9,1.8,1.9,2.6,3
			c3.3-2.8,6.7-4.8,10-6.1c1.2-0.5,2.5-0.8,3.7-1C766.4,2058.9,765.5,2058.8,764.5,2058.8"/>
		
			<linearGradient id="path12459_1_" gradientUnits="userSpaceOnUse" x1="292.3021" y1="2393.9194" x2="292.7819" y2="2393.9194" gradientTransform="matrix(0 -122.178 -122.178 0 293265.1563 37827.1875)">
			<stop  offset="0" style="stop-color:#1C63B7"/>
			<stop  offset="0.5" style="stop-color:#33BDF2"/>
			<stop  offset="1" style="stop-color:#33BDF2;stop-opacity:0.4196"/>
		</linearGradient>
		<path id="path12459" class="st3" d="M790.2,2108.8c1.3-1.1,2.7-2.2,4-3.5c-5.5-16.5-7.5-46.6-23.5-46.6c-1.1,0-2.3,0.1-3.4,0.3
			C781.9,2062.7,783.7,2094.4,790.2,2108.8"/>
		<path id="path12521" class="st4" d="M767.3,2059.1c-0.9-0.2-1.8-0.3-2.8-0.3l6.3,0C769.6,2058.8,768.5,2058.9,767.3,2059.1"/>
		<path id="path12525" class="st5" d="M790,2112.3c-0.6-0.6-1.2-1.3-1.8-1.9c-2.7,1.9-5.4,3.3-8,4.3c0.9,0.5,1.9,0.8,3,1
			c0.8,0.2,1.7,0.3,2.6,0.3c3,0,5.3-0.4,7.4-1.3C791.9,2114,790.9,2113.3,790,2112.3"/>
		
			<linearGradient id="path12553_1_" gradientUnits="userSpaceOnUse" x1="295.0501" y1="2398.4736" x2="295.5299" y2="2398.4736" gradientTransform="matrix(0 159.4252 159.4252 0 -381600.3125 -44989.3477)">
			<stop  offset="0" style="stop-color:#166AB8"/>
			<stop  offset="0.4" style="stop-color:#36AEE8"/>
			<stop  offset="0.4" style="stop-color:#36AEE8"/>
			<stop  offset="0.8462" style="stop-color:#0798DD"/>
			<stop  offset="0.8462" style="stop-color:#0798DD"/>
			<stop  offset="1" style="stop-color:#0798DD"/>
		</linearGradient>
		<path id="path12553" class="st6" d="M763.6,2060.1c13,6.8,14.2,37.7,24.6,50.3l0,0c0.7-0.5,1.4-1,2.1-1.6l0,0
			c-6.5-14.4-8.4-46.1-22.9-49.7l0,0C766.1,2059.3,764.8,2059.7,763.6,2060.1"/>
		
			<linearGradient id="path12581_1_" gradientUnits="userSpaceOnUse" x1="294.9615" y1="2398.3936" x2="295.4413" y2="2398.3936" gradientTransform="matrix(0 169.5276 169.5276 0 -405823.0313 -47954.6328)">
			<stop  offset="0" style="stop-color:#124379"/>
			<stop  offset="0.39" style="stop-color:#1487CB"/>
			<stop  offset="0.39" style="stop-color:#1487CB"/>
			<stop  offset="0.7802" style="stop-color:#165197"/>
			<stop  offset="0.7802" style="stop-color:#165197"/>
			<stop  offset="1" style="stop-color:#165197"/>
		</linearGradient>
		<path id="path12581" class="st7" d="M753.6,2066.2c10,13.7,13.6,42.1,26.5,48.5l0,0c2.7-0.9,5.3-2.4,8-4.3l0,0
			c-10.4-12.5-11.5-43.4-24.6-50.3l0,0C760.3,2061.4,756.9,2063.4,753.6,2066.2"/>
		
			<linearGradient id="path12651_1_" gradientUnits="userSpaceOnUse" x1="1341.3053" y1="277.3601" x2="1344.153" y2="277.3601" gradientTransform="matrix(4.0385 0 0 -4.0385 -4678.6699 3194.5837)">
			<stop  offset="0" style="stop-color:#33BDF2;stop-opacity:0.698"/>
			<stop  offset="1" style="stop-color:#1DACD8"/>
		</linearGradient>
		<path id="path12651" class="st8" d="M743.3,2069.3c-1.6,3.5-3.2,8.2-5.1,14.3c3.8-5.4,7.7-10.1,11.5-13.9
			c-0.5-1.6-1.1-3.1-1.7-4.4C746.5,2066.5,744.9,2067.8,743.3,2069.3"/>
		<path id="path12655" class="st9" d="M749.4,2064.3c-0.5,0.3-0.9,0.7-1.4,1c0.6,1.3,1.2,2.8,1.7,4.4c0.7-0.7,1.4-1.3,2.1-2
			C751,2066.5,750.3,2065.3,749.4,2064.3"/>
		<path id="path12659" class="st10" d="M751,2063.2c-0.5,0.3-1.1,0.7-1.6,1.1c0.9,1.1,1.6,2.2,2.4,3.5c0.6-0.5,1.2-1.1,1.8-1.6
			C752.8,2065.1,751.9,2064.1,751,2063.2"/>
		
			<linearGradient id="path12741_1_" gradientUnits="userSpaceOnUse" x1="292.254" y1="2394.2505" x2="292.7339" y2="2394.2505" gradientTransform="matrix(0 -119.0183 -119.0183 0 285784.3125 36896.4141)">
			<stop  offset="0" style="stop-color:#136AB4"/>
			<stop  offset="0.6" style="stop-color:#59CAF5;stop-opacity:0.549"/>
			<stop  offset="1" style="stop-color:#59CAF5;stop-opacity:0.2353"/>
		</linearGradient>
		<path id="path12741" class="st11" d="M840,2057.5c-7.4,28.4-22.8,51.3-35.7,57h0c-0.2,0.1-0.5,0.2-0.7,0.3c0,0-0.1,0-0.1,0
			c-0.1,0-0.1,0-0.2,0.1c0,0-0.1,0-0.1,0c-0.1,0-0.2,0.1-0.3,0.1c0,0-0.1,0-0.1,0c0,0-0.1,0-0.2,0.1c0,0-0.1,0-0.2,0.1
			c0,0-0.1,0-0.1,0c-0.1,0-0.2,0.1-0.3,0.1c0,0-0.1,0-0.1,0c-0.1,0-0.1,0-0.2,0.1c0,0-0.1,0-0.1,0c-0.1,0-0.1,0-0.2,0.1
			c-0.1,0-0.2,0-0.2,0.1c0.6,0.2,1.2,0.3,1.8,0.3c12.2,0,24.6-21.9,45-58.4L840,2057.5L840,2057.5z"/>
		
			<linearGradient id="path12803_1_" gradientUnits="userSpaceOnUse" x1="1331.2001" y1="273.9811" x2="1341.7625" y2="273.9811" gradientTransform="matrix(4.0385 0 0 -4.0385 -4678.6699 3194.5837)">
			<stop  offset="0" style="stop-color:#05A1E6;stop-opacity:0.2471"/>
			<stop  offset="1" style="stop-color:#05A1E6"/>
		</linearGradient>
		<path id="path12803" class="st12" d="M735.6,2059.9C735.6,2059.9,735.6,2059.9,735.6,2059.9
			C735.6,2059.9,735.6,2059.9,735.6,2059.9C735.6,2059.9,735.6,2059.9,735.6,2059.9c0.1-0.1,0.2-0.1,0.3-0.1c0,0,0,0,0,0
			c0,0,0,0,0.1,0c0.1,0,0.1-0.1,0.2-0.1c0,0,0,0,0,0c0.2,0,0.3-0.1,0.5-0.2c0,0,0,0,0.1,0c0.1,0,0.1,0,0.2-0.1c0,0,0.1,0,0.1,0
			c0.1,0,0.1,0,0.2-0.1c0,0,0.1,0,0.1,0c0.2-0.1,0.4-0.1,0.7-0.2c0,0,0.1,0,0.1,0c0.1,0,0.1,0,0.2,0c0,0,0.1,0,0.1,0
			c0.1,0,0.1,0,0.2,0c0,0,0,0,0,0c0.1,0,0.3-0.1,0.4-0.1c0,0,0.1,0,0.1,0c0.1,0,0.1,0,0.2,0c0,0,0.1,0,0.1,0c0.1,0,0.1,0,0.2,0
			c0,0,0.1,0,0.1,0c0.1,0,0.3,0,0.4,0c-0.4,0-0.9-0.1-1.3-0.1c-13.8,0-32.8,25.6-41.4,58.7c0,0,0.6,0,1.6,0
			c2.7-4.9,5.2-9.5,7.5-13.8C712.5,2080.2,724.7,2064.1,735.6,2059.9"/>
		<path id="path12807" class="st13" d="M743.3,2069.3c1.6-1.5,3.1-2.8,4.7-4c-0.4-0.8-0.7-1.5-1.1-2.2
			C745.6,2064.7,744.5,2066.7,743.3,2069.3"/>
		<path id="path12811" class="st13" d="M744.5,2060.1c0.9,0.8,1.7,1.8,2.4,3c0.2-0.3,0.5-0.5,0.7-0.8c-1-1-2.1-1.7-3.3-2.3
			C744.3,2060,744.4,2060.1,744.5,2060.1C744.4,2060.1,744.4,2060.1,744.5,2060.1"/>
		
			<linearGradient id="path12831_1_" gradientUnits="userSpaceOnUse" x1="292.2984" y1="2393.3813" x2="292.7783" y2="2393.3813" gradientTransform="matrix(0 -121.8652 -121.8652 0 292390.8125 37735.2539)">
			<stop  offset="0" style="stop-color:#318ED5"/>
			<stop  offset="1" style="stop-color:#38A7E4"/>
		</linearGradient>
		<path id="path12831" class="st14" d="M706.5,2103.6c12.6-24.2,18.5-39.6,29.1-43.7l0,0C724.7,2064.2,712.5,2080.2,706.5,2103.6"/>
		<path id="path12843" class="st15" d="M747.6,2062.3c-0.2,0.2-0.5,0.5-0.7,0.8c0.4,0.7,0.8,1.4,1.1,2.2c0.5-0.4,0.9-0.7,1.4-1
			C748.8,2063.6,748.2,2062.9,747.6,2062.3"/>
		
			<linearGradient id="path12923_1_" gradientUnits="userSpaceOnUse" x1="292.2627" y1="2393.3259" x2="292.7425" y2="2393.3259" gradientTransform="matrix(0 -118.4596 -118.4596 0 284237.0938 36735.7813)">
			<stop  offset="0" style="stop-color:#05A1E6"/>
			<stop  offset="1" style="stop-color:#05A1E6;stop-opacity:0.549"/>
		</linearGradient>
		<path id="path12923" class="st16" d="M712.2,2117.4L712.2,2117.4c-0.1,0-0.2,0-0.2,0c0,0,0,0,0,0c-0.1,0-0.1,0-0.2,0c0,0,0,0,0,0
			c-0.2,0-0.3,0-0.5,0h0c12.7-0.4,18.5-6.7,21.4-16c2.2-7,4-12.9,5.6-17.9c-5.3,7.5-10.7,16.4-16.1,26.5
			C719.5,2114.9,715.6,2116.9,712.2,2117.4"/>
		
			<linearGradient id="path12949_1_" gradientUnits="userSpaceOnUse" x1="292.0476" y1="2392.78" x2="292.5275" y2="2392.78" gradientTransform="matrix(0 -100.1002 -100.1002 0 240245.5 31351.3867)">
			<stop  offset="0" style="stop-color:#1959A6"/>
			<stop  offset="0.5" style="stop-color:#05A1E6"/>
			<stop  offset="0.5" style="stop-color:#05A1E6"/>
			<stop  offset="0.9176" style="stop-color:#7EC5EA"/>
			<stop  offset="1" style="stop-color:#7EC5EA"/>
		</linearGradient>
		<path id="path12949" class="st17" d="M712.2,2117.4L712.2,2117.4c3.4-0.4,7.3-2.4,9.9-7.3l0,0c5.4-10,10.7-19,16.1-26.5l0,0
			c1.9-6.1,3.5-10.7,5.1-14.3l0,0C732.7,2079.4,722,2096.2,712.2,2117.4"/>
		<path id="path12961" class="st18" d="M706.5,2103.6c-2.3,4.3-4.7,9-7.5,13.8c1.2,0,2.9,0,4.8,0
			C704.5,2112.6,705.4,2108,706.5,2103.6"/>
		
			<linearGradient id="path12981_1_" gradientUnits="userSpaceOnUse" x1="291.6013" y1="2393.4397" x2="292.0813" y2="2393.4397" gradientTransform="matrix(-19.138 -108.5369 -108.5369 19.138 266086.8125 -12041.7832)">
			<stop  offset="0" style="stop-color:#165096"/>
			<stop  offset="1" style="stop-color:#0D82CA"/>
		</linearGradient>
		<path id="path12981" class="st19" d="M739.6,2058.9c0,0-0.1,0-0.1,0l0,0c-0.1,0-0.1,0-0.2,0l0,0c0,0-0.1,0-0.1,0l0,0
			c-0.1,0-0.1,0-0.2,0l0,0c0,0-0.1,0-0.1,0l0,0c-0.1,0-0.3,0-0.4,0.1l0,0c0,0,0,0,0,0l0,0c-0.1,0-0.1,0-0.2,0l0,0c0,0-0.1,0-0.1,0
			l0,0c-0.1,0-0.1,0-0.2,0l0,0c0,0-0.1,0-0.1,0l0,0c-0.2,0.1-0.4,0.1-0.7,0.2l0,0c0,0,0,0-0.1,0l0,0c-0.1,0-0.1,0-0.2,0.1l0,0
			c0,0-0.1,0-0.1,0l0,0c-0.1,0-0.1,0-0.2,0.1l0,0c0,0,0,0-0.1,0l0,0c-0.2,0.1-0.3,0.1-0.5,0.2l0,0l0,0l0,0c-0.1,0-0.1,0-0.2,0.1l0,0
			c0,0-0.1,0-0.1,0l0,0c-0.1,0-0.1,0-0.2,0.1l0,0c0,0,0,0-0.1,0l0,0c-10.5,4.2-16.5,19.5-29.1,43.7l0,0c-1.1,4.4-2,9-2.7,13.8l0,0
			h0.7c1.9,0,2.4,0,4.6,0l0,0h0.1h0.3h0.1h0h0.1h0.1h0h0.1h0.3h0.3h0.2h0.1c0.1,0,0.3,0,0.4,0l0,0c0.2,0,0.3,0,0.5,0l0,0
			c0,0,0,0,0,0l0,0c0.1,0,0.1,0,0.2,0l0,0c0,0,0,0,0,0l0,0c0.1,0,0.2,0,0.2,0l0,0l0,0c9.8-21.1,20.5-37.9,31.1-48l0,0
			c1.2-2.6,2.3-4.7,3.6-6.2l0,0c-0.7-1.2-1.5-2.3-2.4-3l0,0c0,0,0,0,0,0l0,0c-0.1,0-0.1,0-0.2-0.1l0,0c-0.1,0-0.1,0-0.1-0.1l0,0
			c0,0-0.1,0-0.1-0.1l0,0c-0.1,0-0.1,0-0.2-0.1l0,0c0,0-0.1,0-0.1-0.1l0,0c-0.1,0-0.2-0.1-0.3-0.1l0,0c0,0-0.1,0-0.1,0l0,0
			c-0.1,0-0.1-0.1-0.2-0.1l0,0c0,0-0.1,0-0.1,0l0,0c-0.1,0-0.2-0.1-0.3-0.1l0,0c0,0,0,0,0,0l0,0c-0.1,0-0.2-0.1-0.3-0.1l0,0
			c0,0,0,0-0.1,0l0,0c-0.1,0-0.2-0.1-0.3-0.1l0,0c0,0,0,0-0.1,0l0,0c-0.2-0.1-0.5-0.1-0.7-0.2l0,0c0,0,0,0-0.1,0l0,0
			c-0.1,0-0.2,0-0.3,0l0,0c0,0,0,0-0.1,0l0,0c-0.1,0-0.2,0-0.4,0l0,0c0,0,0,0-0.1,0l0,0c-0.1,0-0.2,0-0.3,0l0,0
			C739.9,2058.9,739.8,2058.9,739.6,2058.9"/>
		
			<linearGradient id="path13003_1_" gradientUnits="userSpaceOnUse" x1="290.2336" y1="2391.6116" x2="290.7133" y2="2391.6116" gradientTransform="matrix(0 -56.7206 -56.7206 0 136468.5 18547.0723)">
			<stop  offset="0" style="stop-color:#05A1E6"/>
			<stop  offset="0.8736" style="stop-color:#0495D6"/>
			<stop  offset="1" style="stop-color:#0495D6"/>
		</linearGradient>
		<path id="path13003" class="st20" d="M811.2,2073.2c-2.4,7.8-4.4,14.1-6.1,19.4l0,0c6.6-9.1,13.2-20.6,19.4-33.9l0,0
			C817.2,2061,813.4,2066.3,811.2,2073.2"/>
		
			<linearGradient id="path13093_1_" gradientUnits="userSpaceOnUse" x1="294.9214" y1="2398.7209" x2="295.4012" y2="2398.7209" gradientTransform="matrix(-23.0627 130.7947 130.7947 23.0627 -306110.7188 -91839.9531)">
			<stop  offset="0" style="stop-color:#38A7E4;stop-opacity:0.3294"/>
			<stop  offset="0.9615" style="stop-color:#0E88D3"/>
			<stop  offset="0.9615" style="stop-color:#0E88D3"/>
			<stop  offset="1" style="stop-color:#0E88D3"/>
		</linearGradient>
		<path id="path13093" class="st21" d="M805.3,2114.1c-0.3,0.2-0.7,0.3-1,0.5c12.9-5.8,28.3-28.6,35.7-57h-1.5
			C821.6,2087.8,816.1,2108,805.3,2114.1"/>
		<path id="path13097" class="st22" d="M796.9,2111.5c2.8-3.4,5.1-9.3,8.2-18.9c-3.6,5-7.2,9.2-10.9,12.7c0,0,0,0,0,0
			C795,2107.7,795.9,2109.8,796.9,2111.5"/>
		<path id="path13101" class="st5" d="M796.9,2111.5c-1,1.2-2,2.1-3.1,2.7c-0.2,0.1-0.5,0.3-0.8,0.4c1.2,0.6,2.5,1.1,3.9,1.2l0,0
			l0,0c0.2,0,0.4,0,0.6,0.1h0c0.1,0,0.2,0,0.3,0h0c0.1,0,0.2,0,0.3,0c0.1,0,0.2,0,0.3,0c0,0,0.1,0,0.1,0c0.1,0,0.2,0,0.2,0
			c0,0,0.1,0,0.1,0c0.1,0,0.2,0,0.2,0c0,0,0,0,0,0c0,0,0.1,0,0.1,0c0.1,0,0.2,0,0.3,0h0c0,0,0.1,0,0.1,0c0.1,0,0.2,0,0.3,0
			c0,0,0.1,0,0.1,0c0.1,0,0.2,0,0.3-0.1h0c0,0,0,0,0,0c0.2,0,0.4-0.1,0.6-0.1C799.5,2115,798.1,2113.6,796.9,2111.5"/>
		<path id="path13105" class="st23" d="M773.1,2115.9c1.2,0,2.4-0.1,3.7-0.4c1.1-0.2,2.3-0.5,3.4-0.9c0.9,0.5,1.9,0.8,3,1
			c0.8,0.2,1.7,0.3,2.6,0.3H773.1z"/>
		<path id="path13109" class="st23" d="M785.7,2115.9c3,0,5.3-0.4,7.4-1.3c1.2,0.6,2.5,1.1,3.9,1.2l0,0l0,0c0.2,0,0.4,0,0.6,0.1h0
			c0.1,0,0.2,0,0.3,0h0c0.1,0,0.2,0,0.3,0L785.7,2115.9L785.7,2115.9z"/>
		<path id="path13113" class="st24" d="M798.3,2115.9c0.1,0,0.2,0,0.3,0c0,0,0.1,0,0.1,0c0.1,0,0.2,0,0.2,0c0,0,0.1,0,0.1,0
			c0.1,0,0.2,0,0.2,0c0,0,0,0,0,0c0,0,0.1,0,0.1,0c0.1,0,0.2,0,0.2,0c0,0,0,0,0,0c0,0,0.1,0,0.1,0c0.1,0,0.2,0,0.3,0
			c0,0,0.1,0,0.1,0c0.1,0,0.2,0,0.3,0h0c0,0,0,0,0,0c0.2,0,0.4-0.1,0.6-0.1l0,0c0.6,0.2,1.2,0.3,1.8,0.3L798.3,2115.9L798.3,2115.9z
			"/>
		<path id="path13117" class="st25" d="M794.2,2105.4L794.2,2105.4c-1.3,1.3-2.7,2.4-4,3.5c-0.7,0.6-1.4,1.1-2.1,1.6
			c0.6,0.7,1.2,1.4,1.8,1.9c0.9,0.9,2,1.7,3.1,2.3c0.3-0.1,0.5-0.3,0.7-0.4c1.1-0.7,2.1-1.5,3.1-2.7
			C795.9,2109.8,795,2107.7,794.2,2105.4"/>
		
			<linearGradient id="path13139_1_" gradientUnits="userSpaceOnUse" x1="295.3942" y1="2398.6904" x2="295.874" y2="2398.6904" gradientTransform="matrix(0 123.7424 123.7424 0 -296002.0938 -34495.4805)">
			<stop  offset="0" style="stop-color:#168CD4"/>
			<stop  offset="0.5" style="stop-color:#1C87CC"/>
			<stop  offset="1" style="stop-color:#154B8D"/>
		</linearGradient>
		<path id="path13139" class="st26" d="M833.8,2057.5h-6.3c-0.2,0-0.4,0-0.6,0l0,0c-0.2,0-0.4,0-0.6,0l0,0h0c-0.4,0-0.8,0-1.2,0.1
			l0,0c-0.2,0.4-0.4,0.8-0.6,1.2l0,0c-6.2,13.3-12.8,24.8-19.4,33.9l0,0c-3.1,9.6-5.4,15.4-8.2,18.9l0,0c1.2,2,2.6,3.5,4.3,4.1l0,0
			c0,0,0.1,0,0.1,0l0,0c0,0,0,0,0,0l0,0c0,0,0.1,0,0.1,0l0,0c0.1,0,0.1,0,0.2-0.1l0,0c0,0,0.1,0,0.1,0l0,0c0.1,0,0.1,0,0.2,0l0,0
			c0,0,0.1,0,0.1,0l0,0c0.1,0,0.2-0.1,0.3-0.1l0,0c0,0,0.1,0,0.1,0l0,0c0.1,0,0.1,0,0.2-0.1l0,0c0.1,0,0.1,0,0.2-0.1l0,0
			c0,0,0.1,0,0.1,0l0,0c0.1,0,0.2-0.1,0.3-0.1l0,0c0,0,0.1,0,0.1,0l0,0c0.1,0,0.1,0,0.2-0.1l0,0c0,0,0.1,0,0.1,0l0,0
			c0.2-0.1,0.5-0.2,0.7-0.3l0,0h0l0,0c0.3-0.1,0.7-0.3,1-0.5l0,0c10.8-6,16.2-26.3,33.2-56.6l0,0L833.8,2057.5L833.8,2057.5z"/>
		<path id="path13231" class="st27" d="M740.1,2058.8C740.1,2058.8,740.1,2058.8,740.1,2058.8c0.1,0,0.2,0,0.3,0c0,0,0,0,0.1,0
			c0.1,0,0.2,0,0.4,0c0,0,0,0,0.1,0c0.1,0,0.2,0,0.3,0.1c0,0,0.1,0,0.1,0c0.2,0,0.5,0.1,0.7,0.2c0,0,0,0,0.1,0
			c0.1,0,0.2,0.1,0.3,0.1c0,0,0.1,0,0.1,0c0.1,0,0.2,0.1,0.3,0.1c0,0,0,0,0,0c0.1,0,0.2,0.1,0.3,0.1c0,0,0.1,0,0.1,0
			c0.1,0,0.1,0.1,0.2,0.1c0,0,0.1,0,0.1,0c0.1,0,0.2,0.1,0.3,0.1c0,0,0.1,0,0.1,0.1c0.1,0,0.1,0.1,0.2,0.1c0,0,0.1,0,0.1,0.1
			c0.1,0,0.1,0,0.1,0.1c1.2,0.6,2.3,1.4,3.3,2.3c0.4-0.4,0.8-0.8,1.2-1.1c-2.2-1.6-4.8-2.5-7.7-2.5
			C740.7,2058.8,740.4,2058.8,740.1,2058.8"/>
		<path id="path13235" class="st28" d="M747.6,2062.3c0.6,0.6,1.2,1.2,1.8,1.9c0.5-0.4,1.1-0.8,1.6-1.1c-0.7-0.7-1.5-1.4-2.3-1.9
			C748.4,2061.6,748,2061.9,747.6,2062.3"/>
		<g id="g13243" transform="matrix(5.0481458,0,0,-5.0481458,-9064.2597,2270.6096)">
			
				<linearGradient id="path13245_1_" gradientUnits="userSpaceOnUse" x1="1856.3773" y1="-24.489" x2="1856.8572" y2="-24.489" gradientTransform="matrix(28.5033 -11.8223 -11.8223 -28.5033 -51259.8125 21291.2168)">
				<stop  offset="0" style="stop-color:#97D6EE"/>
				<stop  offset="0.7033" style="stop-color:#55C1EA"/>
				<stop  offset="1" style="stop-color:#55C1EA"/>
			</linearGradient>
			<path id="path13245" class="st29" d="M1942.2,42c0.1,0,0.1,0,0.2,0c0.6,0,1.1-0.2,1.5-0.5c0.5,0.4,1,0.5,1.8,0.5h-3.8
				C1942,42,1942.1,42,1942.2,42"/>
		</g>
		<g id="g13253" transform="matrix(5.0481458,0,0,-5.0481458,-9064.2597,2270.6096)">
			
				<linearGradient id="path13255_1_" gradientUnits="userSpaceOnUse" x1="1855.5422" y1="-22.2171" x2="1856.0221" y2="-22.2171" gradientTransform="matrix(22.5118 10.2054 10.2054 -22.5118 -39600.8281 -19395.4863)">
				<stop  offset="0" style="stop-color:#7ACCEC"/>
				<stop  offset="1" style="stop-color:#3FB7ED"/>
			</linearGradient>
			<path id="path13255" class="st30" d="M1945.7,42c-0.8,0-1.4-0.1-1.8-0.5c0.2-0.1,0.3-0.2,0.4-0.4c0.7,0.4,1.3,0.7,1.9,0.8
				c0.2,0,0.5,0.1,0.7,0.1L1945.7,42L1945.7,42z"/>
		</g>
		
			<linearGradient id="path13333_1_" gradientUnits="userSpaceOnUse" x1="295.4048" y1="2398.8118" x2="295.8846" y2="2398.8118" gradientTransform="matrix(0 121.0325 121.0325 0 -289524.5313 -33692.9844)">
			<stop  offset="0" style="stop-color:#1DA7E7"/>
			<stop  offset="1" style="stop-color:#37ABE7;stop-opacity:0"/>
		</linearGradient>
		<path id="path13333" class="st31" d="M805.1,2092.6c1.7-5.3,3.7-11.7,6.1-19.4c2.2-7,6.1-12.2,13.3-14.5c0.2-0.4,0.4-0.8,0.6-1.2
			c-11.8,0.7-17.4,6.7-20.2,15.7c-4.9,15.6-7.8,25.7-10.7,32.1C797.9,2101.9,801.5,2097.6,805.1,2092.6"/>
	</g>
</g>
</svg>
