<?xml version="1.0" encoding="utf-8"?>
<!-- Generator: Adobe Illustrator 19.0.0, SVG Export Plug-In . SVG Version: 6.00 Build 0)  -->
<svg version="1.1" id="Layer_1" xmlns="http://www.w3.org/2000/svg" xmlns:xlink="http://www.w3.org/1999/xlink" x="0px" y="0px"
	 viewBox="-549 245 268 72" style="enable-background:new -549 245 268 72;" xml:space="preserve">
<style type="text/css">
	.st0{fill:#5C2D91;}
	.st1{opacity:0.1;fill:#FFFFFF;enable-background:new    ;}
	.st2{fill:#FFFFFF;}
	.st3{fill:#F2F2F2;}
</style>
<title>logo_NETcore</title>
<circle class="st0" cx="-415" cy="281" r="34.5"/>
<path class="st1" d="M-438.9,256.2c-14.2,12.7-15.5,34.5-2.8,48.7s34.5,15.5,48.7,2.8c1-0.9,1.9-1.8,2.8-2.8L-438.9,256.2z"/>
<path class="st2" d="M-441.5,286.6c-0.4,0-0.8-0.2-1.1-0.5c-0.3-0.3-0.4-0.7-0.4-1.1c0-0.4,0.2-0.8,0.4-1.1c0.3-0.3,0.7-0.5,1.1-0.5
	c0.4,0,0.8,0.2,1.1,0.5c0.3,0.3,0.5,0.7,0.5,1.1c0,0.4-0.2,0.8-0.5,1.1C-440.7,286.5-441.1,286.6-441.5,286.6z"/>
<path class="st2" d="M-420.1,286.4h-2.8l-10.1-15.7c-0.3-0.4-0.5-0.8-0.6-1.2h-0.1c0.1,0.9,0.1,1.8,0.1,2.7v14.2h-2.3v-19.7h3
	l9.8,15.4c0.4,0.6,0.7,1.1,0.8,1.3h0.1c-0.1-1-0.2-1.9-0.1-2.9v-13.8h2.3V286.4z"/>
<path class="st2" d="M-404.5,286.4H-415v-19.7h10v2.1h-7.6v6.5h7.1v2.1h-7.1v6.8h8.1L-404.5,286.4z"/>
<path class="st2" d="M-389.1,268.8h-5.7v17.6h-2.3v-17.6h-5.7v-2.1h13.7V268.8z"/>
<path class="st3" d="M-421.3,299.7c-0.8,0.4-1.6,0.6-2.5,0.5c-1.2,0.1-2.3-0.4-3.1-1.2c-0.8-0.9-1.2-2-1.2-3.2
	c-0.1-1.3,0.4-2.6,1.3-3.5c0.9-0.9,2.1-1.4,3.3-1.3c0.7,0,1.5,0.1,2.2,0.4v1.1c-0.7-0.4-1.4-0.6-2.2-0.5c-1,0-1.9,0.4-2.5,1.1
	c-0.7,0.8-1,1.8-1,2.8c-0.1,1,0.3,1.9,0.9,2.6c0.6,0.7,1.5,1,2.4,1c0.8,0,1.6-0.2,2.4-0.6L-421.3,299.7z"/>
<path class="st3" d="M-416.9,300.3c-0.9,0-1.7-0.3-2.3-1c-0.6-0.7-0.9-1.5-0.9-2.4c-0.1-0.9,0.3-1.9,0.9-2.5c0.6-0.6,1.5-1,2.4-0.9
	c0.8,0,1.7,0.3,2.3,0.9c0.6,0.7,0.9,1.6,0.8,2.5c0,0.9-0.3,1.8-0.9,2.5C-415.2,299.9-416,300.3-416.9,300.3z M-416.8,294.4
	c-0.6,0-1.2,0.2-1.6,0.7c-0.4,0.5-0.6,1.2-0.6,1.9c0,0.7,0.2,1.3,0.6,1.8c0.4,0.4,1,0.7,1.6,0.7c0.6,0,1.2-0.2,1.5-0.6
	c0.4-0.5,0.6-1.2,0.5-1.9c0-0.7-0.1-1.3-0.5-1.9C-415.7,294.6-416.2,294.3-416.8,294.4z"/>
<path class="st3" d="M-408.6,294.7c-0.2-0.2-0.5-0.2-0.8-0.2c-0.4,0-0.8,0.3-1.1,0.6c-0.3,0.5-0.5,1.1-0.4,1.7v3.3h-1.1v-6.5h1.1
	v1.3l0,0c0.1-0.4,0.4-0.8,0.7-1.1c0.3-0.2,0.6-0.4,1-0.4c0.2,0,0.4,0,0.6,0.1V294.7z"/>
<path class="st3" d="M-402.3,297.1h-4.6c0,0.6,0.2,1.2,0.6,1.7c0.4,0.4,1,0.6,1.5,0.6c0.7,0,1.4-0.3,2-0.7v1
	c-0.7,0.4-1.5,0.7-2.3,0.6c-0.8,0-1.6-0.3-2.2-0.9c-0.6-0.7-0.8-1.6-0.8-2.5c0-0.9,0.3-1.8,0.9-2.5c0.5-0.6,1.3-1,2.2-0.9
	c0.7,0,1.5,0.3,2,0.8c0.5,0.7,0.7,1.5,0.7,2.3L-402.3,297.1z M-403.4,296.3c0-0.5-0.1-1-0.4-1.4c-0.3-0.3-0.7-0.5-1.2-0.5
	c-0.5,0-0.9,0.2-1.2,0.5c-0.4,0.4-0.6,0.9-0.6,1.4L-403.4,296.3z"/>
</svg>
