<?xml version="1.0" encoding="utf-8"?>
<!-- Generator: Adobe Illustrator 19.0.0, SVG Export Plug-In . SVG Version: 6.00 Build 0)  -->
<svg version="1.1" id="PB" xmlns="http://www.w3.org/2000/svg" xmlns:xlink="http://www.w3.org/1999/xlink" x="0px" y="0px"
	 viewBox="-150 236 268 72" style="enable-background:new -150 236 268 72;" xml:space="preserve">
<style type="text/css">
	.st0{clip-path:url(#SVGID_2_);fill:url(#SVGID_3_);}
	.st1{clip-path:url(#SVGID_2_);fill:url(#SVGID_4_);}
	.st2{clip-path:url(#SVGID_2_);}
	.st3{fill:url(#SVGID_5_);}
	.st4{fill:url(#SVGID_6_);}
	.st5{fill:url(#SVGID_7_);}
	.st6{fill:#FFFFFF;}
</style>
<g>
	<path d="M-55.8,272.8v7.4h-3.5v-19.9h7.6c1.2,0,2.2,0.2,3.1,0.5s1.7,0.8,2.3,1.3c0.6,0.6,1.1,1.2,1.4,2c0.3,0.8,0.5,1.6,0.5,2.5
		c0,1-0.2,1.8-0.5,2.6s-0.8,1.4-1.4,1.9c-0.6,0.5-1.4,0.9-2.3,1.2c-0.9,0.3-1.9,0.4-3.1,0.4H-55.8z M-55.8,270h4.2
		c0.7,0,1.2-0.1,1.7-0.2s0.9-0.4,1.2-0.7s0.5-0.7,0.7-1.1c0.1-0.4,0.2-0.9,0.2-1.4c0-0.5-0.1-0.9-0.2-1.3c-0.1-0.4-0.4-0.8-0.7-1.1
		c-0.3-0.3-0.7-0.6-1.2-0.8c-0.5-0.2-1.1-0.3-1.7-0.3h-4.2V270z"/>
	<path d="M-42.5,272.6c0-1.1,0.2-2.1,0.5-3s0.8-1.7,1.4-2.4c0.6-0.7,1.3-1.2,2.2-1.6s1.8-0.6,2.9-0.6c1.1,0,2.1,0.2,2.9,0.6
		s1.6,0.9,2.2,1.6c0.6,0.7,1,1.5,1.3,2.4s0.5,1.9,0.5,3v0.3c0,1.1-0.2,2.1-0.5,3c-0.3,0.9-0.8,1.7-1.3,2.4s-1.3,1.2-2.2,1.6
		s-1.8,0.6-2.9,0.6c-1.1,0-2.1-0.2-2.9-0.6s-1.6-0.9-2.2-1.6s-1-1.5-1.4-2.4c-0.3-0.9-0.5-1.9-0.5-3V272.6z M-39.2,272.9
		c0,0.7,0.1,1.3,0.2,1.9c0.1,0.6,0.4,1.1,0.6,1.6c0.3,0.4,0.7,0.8,1.1,1c0.5,0.3,1,0.4,1.6,0.4c0.6,0,1.1-0.1,1.6-0.4
		c0.5-0.3,0.8-0.6,1.1-1c0.3-0.4,0.5-1,0.6-1.6c0.1-0.6,0.2-1.2,0.2-1.9v-0.3c0-0.7-0.1-1.3-0.2-1.9s-0.4-1.1-0.6-1.5
		c-0.3-0.4-0.7-0.8-1.1-1.1c-0.5-0.3-1-0.4-1.6-0.4s-1.2,0.1-1.6,0.4c-0.4,0.3-0.8,0.6-1.1,1.1c-0.3,0.4-0.5,1-0.6,1.5
		s-0.2,1.2-0.2,1.9V272.9z"/>
	<path d="M-12.9,275.6l2.4-10.2h3.2l-4,14.8h-2.7l-3.2-10.2l-3.1,10.2h-2.7l-4-14.8h3.2l2.4,10.1l3-10.1h2.5L-12.9,275.6z"/>
	<path d="M1.4,280.5c-1.1,0-2.1-0.2-3-0.5s-1.6-0.9-2.2-1.5c-0.6-0.6-1.1-1.4-1.4-2.3s-0.5-1.8-0.5-2.8v-0.5c0-1.2,0.2-2.2,0.5-3.2
		s0.8-1.7,1.4-2.4c0.6-0.7,1.3-1.2,2.1-1.5c0.8-0.4,1.7-0.5,2.6-0.5c1.1,0,2,0.2,2.8,0.5c0.8,0.4,1.4,0.9,2,1.5
		c0.5,0.6,0.9,1.4,1.2,2.3c0.3,0.9,0.4,1.9,0.4,2.9v1.4h-9.7c0,0.6,0.2,1.1,0.4,1.6c0.2,0.5,0.5,0.9,0.8,1.3
		c0.3,0.4,0.7,0.6,1.2,0.8c0.5,0.2,1,0.3,1.6,0.3c0.8,0,1.5-0.2,2.1-0.5s1.1-0.8,1.6-1.4l1.8,1.7c-0.2,0.4-0.5,0.7-0.9,1
		c-0.4,0.3-0.8,0.6-1.2,0.9s-1,0.5-1.6,0.6S2.1,280.5,1.4,280.5z M1,267.8c-0.9,0-1.6,0.3-2.2,1c-0.6,0.6-0.9,1.5-1.1,2.7h6.3v-0.2
		c0-0.4-0.1-0.9-0.2-1.3c-0.1-0.4-0.3-0.8-0.5-1.1s-0.5-0.6-0.9-0.8C2,267.9,1.6,267.8,1,267.8z"/>
	<path d="M17.7,268.4c-0.2,0-0.4-0.1-0.7-0.1c-0.2,0-0.5,0-0.7,0c-0.8,0-1.5,0.2-2,0.5c-0.5,0.3-0.9,0.7-1.1,1.3v10.1H9.9v-14.8h3.2
		l0.1,1.7c0.4-0.6,0.8-1.1,1.4-1.4s1.2-0.5,1.9-0.5c0.2,0,0.4,0,0.6,0.1s0.4,0.1,0.5,0.1L17.7,268.4z"/>
	<path d="M20.1,280.2v-19.9h6.8c1.1,0,2,0.1,2.9,0.3c0.9,0.2,1.6,0.5,2.2,1s1,1,1.4,1.7c0.3,0.7,0.5,1.5,0.5,2.4
		c0,0.9-0.2,1.7-0.7,2.5c-0.5,0.7-1.2,1.3-2.2,1.7c0.6,0.2,1.1,0.4,1.5,0.7c0.4,0.3,0.8,0.6,1.1,1c0.3,0.4,0.5,0.8,0.6,1.3
		c0.1,0.5,0.2,1,0.2,1.5c0,1-0.2,1.8-0.5,2.5s-0.8,1.3-1.4,1.8c-0.6,0.5-1.3,0.9-2.2,1.1s-1.8,0.4-2.9,0.4H20.1z M23.5,268.7h3.4
		c1.1,0,1.9-0.2,2.5-0.7c0.6-0.5,0.9-1.2,0.9-2.1c0-1-0.3-1.7-0.8-2.1s-1.4-0.7-2.6-0.7h-3.4V268.7z M23.5,271.2v6.2h3.8
		c0.6,0,1.1-0.1,1.5-0.2c0.4-0.1,0.8-0.4,1.1-0.6c0.3-0.3,0.5-0.6,0.7-1c0.1-0.4,0.2-0.8,0.2-1.2c0-1-0.3-1.8-0.8-2.3
		c-0.5-0.6-1.4-0.8-2.5-0.8H23.5z"/>
	<path d="M46.4,278.7c-0.5,0.5-1,1-1.7,1.3s-1.5,0.5-2.4,0.5c-0.7,0-1.4-0.1-2-0.3s-1.1-0.5-1.5-1c-0.4-0.4-0.8-1-1-1.7
		s-0.4-1.5-0.4-2.5v-9.6h3.3v9.6c0,0.5,0.1,1,0.2,1.3c0.1,0.4,0.3,0.6,0.5,0.8c0.2,0.2,0.5,0.4,0.7,0.5c0.3,0.1,0.6,0.1,0.9,0.1
		c0.9,0,1.5-0.2,2.1-0.5c0.5-0.3,0.9-0.7,1.2-1.3v-10.6h3.3v14.8h-3.1L46.4,278.7z"/>
	<path d="M53,261.5c0-0.5,0.2-0.9,0.5-1.3c0.3-0.3,0.8-0.5,1.4-0.5s1.1,0.2,1.4,0.5c0.3,0.3,0.5,0.8,0.5,1.3c0,0.5-0.2,0.9-0.5,1.3
		c-0.3,0.3-0.8,0.5-1.4,0.5s-1.1-0.2-1.4-0.5C53.1,262.5,53,262,53,261.5z M56.5,280.2h-3.3v-14.8h3.3V280.2z"/>
	<path d="M63.7,280.2h-3.3v-21h3.3V280.2z"/>
	<path d="M66.7,272.7c0-1.1,0.1-2.1,0.4-3.1s0.7-1.7,1.2-2.4c0.5-0.7,1.1-1.2,1.8-1.5c0.7-0.4,1.5-0.5,2.4-0.5
		c0.8,0,1.5,0.1,2.2,0.4c0.6,0.3,1.2,0.7,1.6,1.2v-7.6h3.3v21h-3l-0.2-1.5c-0.5,0.6-1,1-1.7,1.3s-1.4,0.5-2.3,0.5
		c-0.9,0-1.7-0.2-2.4-0.6s-1.3-0.9-1.8-1.6c-0.5-0.7-0.9-1.5-1.2-2.4s-0.4-1.9-0.4-3V272.7z M70,273c0,0.7,0.1,1.3,0.2,1.9
		c0.1,0.6,0.3,1.1,0.6,1.5s0.6,0.8,1,1c0.4,0.3,0.9,0.4,1.5,0.4c0.7,0,1.4-0.2,1.8-0.5c0.5-0.3,0.9-0.8,1.1-1.3v-6.3
		c-0.3-0.5-0.7-1-1.1-1.3c-0.5-0.3-1.1-0.5-1.8-0.5c-0.6,0-1.1,0.1-1.5,0.4c-0.4,0.3-0.8,0.6-1,1s-0.5,1-0.6,1.5S70,272,70,272.7
		V273z"/>
	<path d="M89.6,280.5c-1.1,0-2.1-0.2-3-0.5s-1.6-0.9-2.2-1.5c-0.6-0.6-1.1-1.4-1.4-2.3s-0.5-1.8-0.5-2.8v-0.5c0-1.2,0.2-2.2,0.5-3.2
		s0.8-1.7,1.4-2.4c0.6-0.7,1.3-1.2,2.1-1.5c0.8-0.4,1.7-0.5,2.6-0.5c1.1,0,2,0.2,2.8,0.5c0.8,0.4,1.4,0.9,2,1.5
		c0.5,0.6,0.9,1.4,1.2,2.3c0.3,0.9,0.4,1.9,0.4,2.9v1.4h-9.7c0,0.6,0.2,1.1,0.4,1.6c0.2,0.5,0.5,0.9,0.8,1.3
		c0.3,0.4,0.7,0.6,1.2,0.8c0.5,0.2,1,0.3,1.6,0.3c0.8,0,1.5-0.2,2.1-0.5s1.1-0.8,1.6-1.4l1.8,1.7c-0.2,0.4-0.5,0.7-0.9,1
		c-0.4,0.3-0.8,0.6-1.2,0.9s-1,0.5-1.6,0.6S90.3,280.5,89.6,280.5z M89.2,267.8c-0.9,0-1.6,0.3-2.2,1c-0.6,0.6-0.9,1.5-1.1,2.7h6.3
		v-0.2c0-0.4-0.1-0.9-0.2-1.3c-0.1-0.4-0.3-0.8-0.5-1.1s-0.5-0.6-0.9-0.8C90.2,267.9,89.8,267.8,89.2,267.8z"/>
	<path d="M105.9,268.4c-0.2,0-0.4-0.1-0.7-0.1c-0.2,0-0.5,0-0.7,0c-0.8,0-1.5,0.2-2,0.5c-0.5,0.3-0.9,0.7-1.1,1.3v10.1h-3.3v-14.8
		h3.2l0.1,1.7c0.4-0.6,0.8-1.1,1.4-1.4s1.2-0.5,1.9-0.5c0.2,0,0.4,0,0.6,0.1s0.4,0.1,0.5,0.1L105.9,268.4z"/>
</g>
<g>
	<defs>
		<path id="SVGID_1_" d="M-83.4,307h-46c-6.6,0-12-5.4-12-12v-46c0-6.6,5.4-12,12-12h46c6.6,0,12,5.4,12,12v46
			C-71.4,301.6-76.8,307-83.4,307z"/>
	</defs>
	<clipPath id="SVGID_2_">
		<use xlink:href="#SVGID_1_"  style="overflow:visible;"/>
	</clipPath>
	<linearGradient id="SVGID_3_" gradientUnits="userSpaceOnUse" x1="-105.5229" y1="321.291" x2="-106.6884" y2="252.9171">
		<stop  offset="6.264172e-002" style="stop-color:#E95513"/>
		<stop  offset="1" style="stop-color:#F7B52C"/>
	</linearGradient>
	<path class="st0" d="M-83.4,307h-46c-6.6,0-12-5.4-12-12v-46c0-6.6,5.4-12,12-12h46c6.6,0,12,5.4,12,12v46
		C-71.4,301.6-76.8,307-83.4,307z"/>
	
		<linearGradient id="SVGID_4_" gradientUnits="userSpaceOnUse" x1="-154.7966" y1="312.3931" x2="-106.3631" y2="312.3931" gradientTransform="matrix(1 0 0 -1 0 564)">
		<stop  offset="0" style="stop-color:#FFFFFF;stop-opacity:0"/>
		<stop  offset="0.9624" style="stop-color:#FFFFFF"/>
		<stop  offset="1" style="stop-color:#FFFFFF"/>
	</linearGradient>
	<polygon class="st1" points="-109.3,253.2 -154.8,253.2 -154.8,250 -106.4,250 	"/>
	<g class="st2">
		
			<linearGradient id="SVGID_5_" gradientUnits="userSpaceOnUse" x1="-170.4151" y1="300.4162" x2="-122.0625" y2="300.4162" gradientTransform="matrix(1 0 0 -1 0 564)">
			<stop  offset="0" style="stop-color:#FFFFFF;stop-opacity:0"/>
			<stop  offset="0.9624" style="stop-color:#FFFFFF"/>
			<stop  offset="1" style="stop-color:#FFFFFF"/>
		</linearGradient>
		<polygon class="st3" points="-125.1,265.2 -170.4,265.2 -170.4,262 -122.1,262 		"/>
		
			<linearGradient id="SVGID_6_" gradientUnits="userSpaceOnUse" x1="-167.4614" y1="285.0809" x2="-119.2302" y2="285.0809" gradientTransform="matrix(1 0 0 -1 0 564)">
			<stop  offset="0" style="stop-color:#FFFFFF;stop-opacity:0"/>
			<stop  offset="0.9624" style="stop-color:#FFFFFF"/>
			<stop  offset="1" style="stop-color:#FFFFFF"/>
		</linearGradient>
		<polygon class="st4" points="-122.2,280.5 -167.5,280.5 -167.5,277.3 -119.2,277.3 		"/>
		
			<linearGradient id="SVGID_7_" gradientUnits="userSpaceOnUse" x1="-181.7446" y1="273.2254" x2="-133.5134" y2="273.2254" gradientTransform="matrix(1 0 0 -1 0 564)">
			<stop  offset="0" style="stop-color:#FFFFFF;stop-opacity:0"/>
			<stop  offset="0.9624" style="stop-color:#FFFFFF"/>
			<stop  offset="1" style="stop-color:#FFFFFF"/>
		</linearGradient>
		<polygon class="st5" points="-136.5,292.4 -181.7,292.4 -181.7,289.2 -133.5,289.2 		"/>
	</g>
	<g class="st2">
		<g>
			<g>
				<circle class="st6" cx="-84.2" cy="256.1" r="5.2"/>
				<path class="st6" d="M-80.9,264.2l-3,4.8l-11.3-14.6c-1.4-1.7-1.9-1.9-3.9-1.4l-9.5,2.8c-1.5,0.5-1.8,2.9-1.2,4
					c0.5,0.8,1.2,2,4.1,1.3l6.9-2.1l3,4.1l-33.6,26.2c-1.5,1.2-1.5,3-0.6,4.2s2.7,1.3,4,0.4l19.7-15.5l7.3,5.8l-8.7,2.1
					c-1.3,0.6-1.8,1.9-1.6,3.1c0.2,1.5,1.8,2.8,3.5,2.5l14-3.4c1.2-0.2,2.8-1.6,2.1-3.8c0,0-0.2-0.7-1.1-1.3l-8.4-6.7l9-6.6l4.3,5.7
					c-0.2-0.2,0.8,1.2,2,1.3c1.5,0.2,2.5-1.2,2.5-1.2l5.2-8.6c1-2.3-0.4-3.5-0.8-3.7C-78.1,262.6-79.4,262.6-80.9,264.2z"/>
			</g>
		</g>
	</g>
</g>
</svg>
